<svg width="64" height="64" viewBox="0 0 64 64" fill="none" xmlns="http://www.w3.org/2000/svg" xmlns:xlink="http://www.w3.org/1999/xlink">
<path d="M32,10C19.85,10 10,19.85 10,32C10,44.15 19.85,54 32,54C44.15,54 54,44.15 54,32C54,19.85 44.15,10 32,10ZM6,32C6,17.641 17.641,6 32,6C46.359,6 58,17.641 58,32C58,46.359 46.359,58 32,58C17.641,58 6,46.359 6,32Z" clip-rule="evenodd" fill-rule="evenodd" fill="#FFFFFF"/>
<path d="M32.111,22.111C32.892,21.33 34.158,21.33 34.939,22.111L43.414,30.586C44.195,31.367 44.195,32.633 43.414,33.414L34.939,41.889C34.158,42.67 32.892,42.67 32.111,41.889C31.33,41.108 31.33,39.842 32.111,39.061L39.172,32L32.111,24.939C31.33,24.158 31.33,22.892 32.111,22.111Z" clip-rule="evenodd" fill-rule="evenodd" fill="#FFFFFF"/>
<path d="M20,32C20,30.895 20.895,30 22,30L42,30C43.105,30 44,30.895 44,32C44,33.105 43.105,34 42,34L22,34C20.895,34 20,33.105 20,32Z" clip-rule="evenodd" fill-rule="evenodd" fill="#FFFFFF"/>
</svg>
