<svg width="40" height="40" viewBox="0 0 40 40" fill="none" xmlns="http://www.w3.org/2000/svg" xmlns:xlink="http://www.w3.org/1999/xlink">
<path d="M8.686,8.686C11.687,5.686 15.757,4 20,4C24.243,4 28.313,5.686 31.314,8.686C34.314,11.687 36,15.757 36,20C36,24.243 34.314,28.313 31.314,31.314C28.313,34.314 24.243,36 20,36C15.757,36 11.687,34.314 8.686,31.314C5.686,28.313 4,24.243 4,20C4,15.757 5.686,11.687 8.686,8.686ZM20,0C8.954,0 0,8.954 0,20C0,31.046 8.954,40 20,40C31.046,40 40,31.046 40,20C40,8.954 31.046,0 20,0ZM17.121,17.121C17.684,16.559 18,15.796 18,15C18,14.204 17.684,13.441 17.121,12.879C16.559,12.316 15.796,12 15,12C14.204,12 13.441,12.316 12.879,12.879C12.316,13.441 12,14.204 12,15C12,15.796 12.316,16.559 12.879,17.121C13.441,17.684 14.204,18 15,18C15.796,18 16.559,17.684 17.121,17.121ZM27.121,17.121C27.684,16.559 28,15.796 28,15C28,14.204 27.684,13.441 27.121,12.879C26.559,12.316 25.796,12 25,12C24.204,12 23.441,12.316 22.879,12.879C22.316,13.441 22,14.204 22,15C22,15.796 22.316,16.559 22.879,17.121C23.441,17.684 24.204,18 25,18C25.796,18 26.559,17.684 27.121,17.121ZM11.567,22.046C11.31,22.103 11.067,22.209 10.852,22.36C10.637,22.511 10.454,22.704 10.313,22.926C10.172,23.148 10.076,23.395 10.03,23.654C9.984,23.912 9.99,24.177 10.047,24.434C10.104,24.69 10.211,24.933 10.362,25.148C11.716,27.082 14.308,29.488 17.768,30.208C21.416,30.966 25.518,29.748 29.486,25.338C29.668,25.144 29.809,24.915 29.902,24.666C29.994,24.417 30.036,24.151 30.025,23.886C30.013,23.62 29.949,23.359 29.836,23.119C29.723,22.878 29.562,22.662 29.365,22.484C29.167,22.306 28.936,22.17 28.685,22.082C28.434,21.995 28.168,21.958 27.902,21.975C27.637,21.991 27.377,22.06 27.139,22.178C26.901,22.296 26.688,22.461 26.514,22.662C23.282,26.252 20.55,26.7 18.582,26.292C16.424,25.844 14.618,24.25 13.638,22.854C13.488,22.639 13.296,22.455 13.075,22.313C12.853,22.172 12.606,22.076 12.347,22.03C12.089,21.984 11.823,21.989 11.567,22.046Z" clip-rule="evenodd" fill-rule="evenodd" fill="#AFC0DF"/>
</svg>
