<svg width="48" height="48" viewBox="0 0 48 48" fill="none" xmlns="http://www.w3.org/2000/svg" xmlns:xlink="http://www.w3.org/1999/xlink">
<rect  x="26" y="28" width="4" height="4" rx="2" fill="#FFFFFF"/>
<line x1="12" y1="27" x2="20" y2="27" stroke="#FFFFFF" stroke-width="1" stroke-miterlimit="3.999327" stroke-linecap="round"/>
<line x1="15" y1="32" x2="15" y2="24" stroke="#FFFFFF" stroke-width="1" stroke-miterlimit="3.999327" stroke-linecap="round"/>
<rect  x="32" y="24" width="4" height="4" rx="2" fill="#FFFFFF"/>
<path d="M27,16C27,16.552 27.448,17 28,17C28.552,17 29,16.552 29,16L27,16ZM21,4C21,3.448 20.552,3 20,3C19.448,3 19,3.448 19,4L21,4ZM24,11L24.243,10.03L24,11ZM22.234,10.466L21.793,11.363L22.234,10.466ZM20.09,7.72L19.112,7.93L20.09,7.72ZM27.931,14.383L28.914,14.198L27.931,14.383ZM24.119,11.03L24.362,10.06L24.119,11.03ZM25.672,11.489L25.254,12.398L25.672,11.489ZM24.362,10.06L24.243,10.03L23.757,11.97L23.877,12L24.362,10.06ZM21,5.877L21,4L19,4L19,5.877L21,5.877ZM24.243,10.03C23.274,9.788 22.939,9.698 22.676,9.569L21.793,11.363C22.294,11.61 22.882,11.751 23.757,11.97L24.243,10.03ZM19,5.877C19,6.78 18.995,7.384 19.112,7.93L21.067,7.509C21.005,7.222 21,6.876 21,5.877L19,5.877ZM22.676,9.569C21.853,9.164 21.26,8.405 21.067,7.509L19.112,7.93C19.434,9.424 20.422,10.689 21.793,11.363L22.676,9.569ZM29,16C29,15.209 29.004,14.679 28.914,14.198L26.948,14.568C26.996,14.821 27,15.124 27,16L29,16ZM23.877,12C24.726,12.212 25.02,12.29 25.254,12.398L26.089,10.581C25.645,10.376 25.13,10.252 24.362,10.06L23.877,12ZM28.914,14.198C28.614,12.606 27.561,11.258 26.089,10.581L25.254,12.398C26.137,12.804 26.768,13.613 26.948,14.568L28.914,14.198Z" fill="#FFFFFF"/>
<path d="M8.347,38.647L8.989,37.881L8.989,37.881L8.347,38.647ZM7.24,37.439L8.058,36.864L8.058,36.864L7.24,37.439ZM40.76,37.439L39.942,36.864L39.942,36.864L40.76,37.439ZM39.653,38.647L39.011,37.881L39.011,37.881L39.653,38.647ZM39.653,17.353L39.011,18.119L39.011,18.119L39.653,17.353ZM40.76,18.561L39.942,19.136L39.942,19.136L40.76,18.561ZM8.347,17.353L8.989,18.119L8.989,18.119L8.347,17.353ZM7.24,18.561L8.058,19.136L8.058,19.136L7.24,18.561ZM17,17L31,17L31,15L17,15L17,17ZM31,39L17,39L17,41L31,41L31,39ZM17,39C14.629,39 12.942,38.998 11.643,38.838C10.369,38.682 9.593,38.386 8.989,37.881L7.706,39.414C8.718,40.262 9.922,40.642 11.398,40.823C12.848,41.002 14.68,41 17,41L17,39ZM5,28C5,30.537 4.999,32.517 5.16,34.08C5.323,35.659 5.662,36.933 6.422,38.014L8.058,36.864C7.578,36.182 7.297,35.296 7.15,33.875C7.001,32.438 7,30.58 7,28L5,28ZM8.989,37.881C8.642,37.59 8.328,37.248 8.058,36.864L6.422,38.014C6.79,38.538 7.221,39.009 7.706,39.414L8.989,37.881ZM41,28C41,30.58 40.999,32.438 40.85,33.875C40.703,35.296 40.422,36.182 39.942,36.864L41.578,38.014C42.338,36.933 42.677,35.659 42.84,34.08C43.001,32.517 43,30.537 43,28L41,28ZM31,41C33.32,41 35.152,41.002 36.602,40.823C38.078,40.642 39.282,40.262 40.294,39.414L39.011,37.881C38.407,38.386 37.631,38.682 36.357,38.838C35.058,38.998 33.371,39 31,39L31,41ZM39.942,36.864C39.672,37.248 39.358,37.59 39.011,37.881L40.294,39.414C40.779,39.009 41.21,38.538 41.578,38.014L39.942,36.864ZM31,17C33.371,17 35.058,17.002 36.357,17.162C37.631,17.318 38.407,17.614 39.011,18.119L40.294,16.586C39.282,15.738 38.078,15.358 36.602,15.177C35.152,14.998 33.32,15 31,15L31,17ZM43,28C43,25.463 43.001,23.483 42.84,21.92C42.677,20.341 42.338,19.067 41.578,17.986L39.942,19.136C40.422,19.818 40.703,20.704 40.85,22.125C40.999,23.562 41,25.42 41,28L43,28ZM39.011,18.119C39.358,18.41 39.672,18.752 39.942,19.136L41.578,17.986C41.21,17.462 40.779,16.991 40.294,16.586L39.011,18.119ZM17,15C14.68,15 12.848,14.998 11.398,15.177C9.922,15.358 8.718,15.738 7.706,16.586L8.989,18.119C9.593,17.614 10.369,17.318 11.643,17.162C12.942,17.002 14.629,17 17,17L17,15ZM7,28C7,25.42 7.001,23.562 7.15,22.125C7.297,20.704 7.578,19.818 8.058,19.136L6.422,17.986C5.662,19.067 5.323,20.341 5.16,21.92C4.999,23.483 5,25.463 5,28L7,28ZM7.706,16.586C7.221,16.991 6.79,17.462 6.422,17.986L8.058,19.136C8.328,18.752 8.642,18.41 8.989,18.119L7.706,16.586Z" fill="#FFFFFF"/>
</svg>
