<svg width="48" height="48" viewBox="0 0 48 48" fill="none" xmlns="http://www.w3.org/2000/svg" xmlns:xlink="http://www.w3.org/1999/xlink">
<path d="M16.19,14.694L16.841,15.453L16.841,15.453L16.19,14.694ZM31.809,14.694L31.159,15.453L31.159,15.453L31.809,14.694ZM33.809,16.408L34.46,15.649L34.46,15.649L33.809,16.408ZM14.19,16.408L13.54,15.649L13.54,15.649L14.19,16.408ZM37,25.519L37,34L39,34L39,25.519L37,25.519ZM30,41L18,41L18,43L30,43L30,41ZM11,34L11,25.519L9,25.519L9,34L11,34ZM14.841,17.168L16.841,15.453L15.54,13.935L13.54,15.649L14.841,17.168ZM31.159,15.453L33.159,17.168L34.46,15.649L32.46,13.935L31.159,15.453ZM16.841,15.453C18.724,13.839 20.067,12.691 21.212,11.935C22.333,11.194 23.16,10.903 24,10.903L24,8.903C22.62,8.903 21.406,9.409 20.109,10.266C18.836,11.107 17.383,12.354 15.54,13.935L16.841,15.453ZM32.46,13.935C30.617,12.354 29.164,11.107 27.891,10.266C26.594,9.409 25.38,8.903 24,8.903L24,10.903C24.84,10.903 25.667,11.194 26.788,11.935C27.933,12.691 29.276,13.839 31.159,15.453L32.46,13.935ZM18,41C16.086,41 14.751,40.998 13.744,40.863C12.766,40.731 12.248,40.49 11.879,40.121L10.464,41.536C11.267,42.338 12.278,42.683 13.478,42.845C14.649,43.002 16.143,43 18,43L18,41ZM9,34C9,35.857 8.998,37.351 9.155,38.522C9.317,39.723 9.662,40.733 10.464,41.536L11.879,40.121C11.51,39.752 11.269,39.234 11.138,38.256C11.002,37.249 11,35.914 11,34L9,34ZM37,34C37,35.914 36.998,37.249 36.862,38.256C36.731,39.234 36.49,39.752 36.121,40.121L37.536,41.536C38.338,40.733 38.683,39.723 38.845,38.522C39.002,37.351 39,35.857 39,34L37,34ZM30,43C31.857,43 33.351,43.002 34.522,42.845C35.722,42.683 36.733,42.338 37.536,41.536L36.121,40.121C35.752,40.49 35.234,40.731 34.256,40.863C33.249,40.998 31.914,41 30,41L30,43ZM39,25.519C39,22.895 39.021,21.274 38.36,19.835L36.543,20.67C36.979,21.619 37,22.712 37,25.519L39,25.519ZM33.159,17.168C35.29,18.994 36.107,19.722 36.543,20.67L38.36,19.835C37.698,18.396 36.453,17.357 34.46,15.649L33.159,17.168ZM11,25.519C11,22.712 11.021,21.619 11.457,20.67L9.64,19.835C8.979,21.274 9,22.895 9,25.519L11,25.519ZM13.54,15.649C11.547,17.357 10.302,18.396 9.64,19.835L11.457,20.67C11.893,19.722 12.71,18.994 14.841,17.168L13.54,15.649Z" fill="#FFFFFF"/>
<path d="M28,42C28,42.552 28.448,43 29,43C29.552,43 30,42.552 30,42L28,42ZM18,42C18,42.552 18.448,43 19,43C19.552,43 20,42.552 20,42L18,42ZM21,31L27,31L27,29L21,29L21,31ZM28,32L28,42L30,42L30,32L28,32ZM18,32L18,42L20,42L20,32L18,32ZM27,31C27.552,31 28,31.448 28,32L30,32C30,30.343 28.657,29 27,29L27,31ZM21,29C19.343,29 18,30.343 18,32L20,32C20,31.448 20.448,31 21,31L21,29Z" fill="#FFFFFF"/>
</svg>
