<svg width="44" height="44" viewBox="0 0 44 44" fill="none" xmlns="http://www.w3.org/2000/svg" xmlns:xlink="http://www.w3.org/1999/xlink">
<path d="M9.147,37.038L8.693,37.929L9.147,37.038ZM6.962,34.853L6.071,35.307L6.962,34.853ZM37.038,34.853L36.147,34.399L37.038,34.853ZM34.853,37.038L34.399,36.147L34.853,37.038ZM37.038,9.147L37.93,8.693L37.038,9.147ZM9.147,6.962L9.601,7.853L9.147,6.962ZM14.417,7.417L29.583,7.417L29.583,5.417L14.417,5.417L14.417,7.417ZM36.583,14.417L36.583,29.583L38.583,29.583L38.583,14.417L36.583,14.417ZM29.583,36.583L14.417,36.583L14.417,38.583L29.583,38.583L29.583,36.583ZM7.417,29.583L7.417,14.417L5.417,14.417L5.417,29.583L7.417,29.583ZM14.417,36.583C13,36.583 11.998,36.582 11.214,36.518C10.442,36.455 9.971,36.336 9.601,36.147L8.693,37.929C9.392,38.286 10.156,38.439 11.051,38.512C11.935,38.584 13.033,38.583 14.417,38.583L14.417,36.583ZM5.417,29.583C5.417,30.967 5.416,32.065 5.488,32.949C5.561,33.844 5.714,34.608 6.071,35.307L7.853,34.399C7.664,34.029 7.545,33.558 7.482,32.786C7.418,32.002 7.417,31 7.417,29.583L5.417,29.583ZM9.601,36.147C8.848,35.764 8.236,35.152 7.853,34.399L6.071,35.307C6.646,36.436 7.564,37.354 8.693,37.929L9.601,36.147ZM36.583,29.583C36.583,31 36.583,32.002 36.519,32.786C36.456,33.558 36.336,34.029 36.147,34.399L37.93,35.307C38.286,34.608 38.439,33.844 38.512,32.949C38.584,32.065 38.583,30.967 38.583,29.583L36.583,29.583ZM29.583,38.583C30.967,38.583 32.065,38.584 32.949,38.512C33.844,38.439 34.608,38.286 35.307,37.929L34.399,36.147C34.029,36.336 33.558,36.455 32.786,36.518C32.002,36.582 31,36.583 29.583,36.583L29.583,38.583ZM36.147,34.399C35.764,35.152 35.152,35.764 34.399,36.147L35.307,37.929C36.436,37.354 37.354,36.436 37.93,35.307L36.147,34.399ZM29.583,7.417C31,7.417 32.002,7.417 32.786,7.481C33.558,7.545 34.029,7.664 34.399,7.853L35.307,6.071C34.608,5.714 33.844,5.561 32.949,5.488C32.065,5.416 30.967,5.417 29.583,5.417L29.583,7.417ZM38.583,14.417C38.583,13.033 38.584,11.935 38.512,11.051C38.439,10.156 38.286,9.392 37.93,8.693L36.147,9.601C36.336,9.971 36.456,10.442 36.519,11.214C36.583,11.998 36.583,13 36.583,14.417L38.583,14.417ZM34.399,7.853C35.152,8.236 35.764,8.848 36.147,9.601L37.93,8.693C37.354,7.564 36.436,6.646 35.307,6.071L34.399,7.853ZM14.417,5.417C13.033,5.417 11.935,5.416 11.051,5.488C10.156,5.561 9.392,5.714 8.693,6.071L9.601,7.853C9.971,7.664 10.442,7.545 11.214,7.481C11.998,7.417 13,7.417 14.417,7.417L14.417,5.417ZM7.417,14.417C7.417,13 7.418,11.998 7.482,11.214C7.545,10.442 7.664,9.971 7.853,9.601L6.071,8.693C5.714,9.392 5.561,10.156 5.488,11.051C5.416,11.935 5.417,13.033 5.417,14.417L7.417,14.417ZM8.693,6.071C7.564,6.646 6.646,7.564 6.071,8.693L7.853,9.601C8.236,8.848 8.848,8.236 9.601,7.853L8.693,6.071Z" fill="#12151B"/>
<circle cx="15.583" cy="21.083" r="4.583" stroke="#12151B" stroke-width="1" stroke-miterlimit="3.999327"/>
<path d="M19.25,20.083C18.698,20.083 18.25,20.531 18.25,21.083C18.25,21.636 18.698,22.083 19.25,22.083L19.25,20.083ZM31.083,24.75C31.083,25.302 31.531,25.75 32.083,25.75C32.636,25.75 33.083,25.302 33.083,24.75L31.083,24.75ZM27.417,24.75C27.417,25.302 27.864,25.75 28.417,25.75C28.969,25.75 29.417,25.302 29.417,24.75L27.417,24.75ZM31.083,21.383L31.083,24.75L33.083,24.75L33.083,21.383L31.083,21.383ZM19.25,22.083L28.417,22.083L28.417,20.083L19.25,20.083L19.25,22.083ZM28.417,22.083L31.783,22.083L31.783,20.083L28.417,20.083L28.417,22.083ZM27.417,21.083L27.417,24.75L29.417,24.75L29.417,21.083L27.417,21.083ZM33.083,21.383C33.083,20.665 32.501,20.083 31.783,20.083L31.783,22.083C31.397,22.083 31.083,21.77 31.083,21.383L33.083,21.383Z" fill="#12151B"/>
</svg>
