<svg width="32" height="14" viewBox="0 0 32 14" fill="none" xmlns="http://www.w3.org/2000/svg" xmlns:xlink="http://www.w3.org/1999/xlink">
<path d="M30.892,11.003L31.887,10.896L30.892,11.003ZM12.69,2L19.31,2L19.31,0L12.69,0L12.69,2ZM29.337,8.159C29.587,9.074 29.786,10.063 29.898,11.11L31.887,10.896C31.762,9.733 31.541,8.64 31.266,7.633L29.337,8.159ZM29,12L3,12L3,14L29,14L29,12ZM2.102,11.11C2.214,10.063 2.413,9.074 2.663,8.159L0.734,7.633C0.459,8.64 0.238,9.733 0.113,10.896L2.102,11.11ZM3,12C2.416,12 2.055,11.546 2.102,11.11L0.113,10.896C-0.076,12.657 1.375,14 3,14L3,12ZM29.898,11.11C29.945,11.546 29.584,12 29,12L29,14C30.625,14 32.076,12.657 31.887,10.896L29.898,11.11ZM19.31,2C23.957,2 28.229,4.098 29.337,8.159L31.266,7.633C29.816,2.316 24.384,0 19.31,0L19.31,2ZM12.69,0C7.616,0 2.184,2.316 0.734,7.633L2.663,8.159C3.771,4.098 8.043,2 12.69,2L12.69,0Z" fill="#FFFFFF"/>
</svg>
