<svg width="26" height="24" viewBox="0 0 26 24" fill="none" xmlns="http://www.w3.org/2000/svg" xmlns:xlink="http://www.w3.org/1999/xlink">
<path d="M5.877,8.749L5.699,6.757L5.699,6.757L5.877,8.749ZM9.792,5.839L7.936,5.094L7.936,5.094L9.792,5.839ZM4.264,12.822L2.918,14.301L2.918,14.301L4.264,12.822ZM5.626,8.772L5.805,10.764L5.805,10.764L5.626,8.772ZM6.154,17.518L4.201,17.085L4.201,17.085L6.154,17.518ZM6.398,15.298L4.456,15.777L6.398,15.298ZM4.827,13.334L6.173,11.854L6.173,11.854L4.827,13.334ZM6.306,15.007L8.168,14.279L8.168,14.279L6.306,15.007ZM9.394,19.915L10.657,21.466L10.657,21.466L9.394,19.915ZM6.349,21.766L5.823,23.696L6.349,21.766ZM6.076,17.869L8.029,18.302L8.029,18.302L6.076,17.869ZM5.788,21.42L4.3,22.757L4.3,22.757L5.788,21.42ZM14.607,19.915L13.343,21.466L14.607,19.915ZM12.368,18.497L12.053,20.472L12.053,20.472L12.368,18.497ZM11.632,18.497L11.948,20.472L11.632,18.497ZM17.924,17.869L15.972,18.302L15.972,18.302L17.924,17.869ZM18.212,21.42L19.7,22.757L19.7,22.757L18.212,21.42ZM17.651,21.766L18.178,23.696L17.651,21.766ZM19.174,13.334L20.52,14.813L20.52,14.813L19.174,13.334ZM17.695,15.007L19.557,15.735L17.695,15.007ZM17.846,17.518L19.799,17.085L19.799,17.085L17.846,17.518ZM17.602,15.298L19.544,15.777L17.602,15.298ZM18.374,8.772L18.196,10.764L18.374,8.772ZM19.736,12.822L18.39,11.342L18.39,11.342L19.736,12.822ZM14.209,5.839L12.352,6.583L12.352,6.583L14.209,5.839ZM18.123,8.749L18.302,6.757L18.123,8.749ZM14.166,5.732L16.022,4.988L16.022,4.988L14.166,5.732ZM9.835,5.732L11.691,6.477L11.691,6.477L9.835,5.732ZM12,2.3L12,4.3L12,2.3ZM12.31,6.477L12.352,6.583L16.065,5.094L16.022,4.988L12.31,6.477ZM17.945,10.741L18.196,10.764L18.553,6.78L18.302,6.757L17.945,10.741ZM18.39,11.342L17.828,11.854L20.52,14.813L21.082,14.301L18.39,11.342ZM15.894,17.952L15.972,18.302L19.877,17.436L19.799,17.085L15.894,17.952ZM8.029,18.302L8.106,17.952L4.201,17.085L4.124,17.436L8.029,18.302ZM6.173,11.854L5.61,11.342L2.918,14.301L3.481,14.813L6.173,11.854ZM5.805,10.764L6.055,10.741L5.699,6.757L5.448,6.78L5.805,10.764ZM11.648,6.583L11.691,6.477L7.978,4.988L7.936,5.094L11.648,6.583ZM6.055,10.741C6.708,10.683 7.348,10.628 7.885,10.524C8.467,10.411 9.09,10.213 9.679,9.775L7.293,6.565C7.353,6.52 7.366,6.55 7.122,6.597C6.833,6.653 6.433,6.692 5.699,6.757L6.055,10.741ZM7.936,5.094C7.661,5.778 7.509,6.151 7.372,6.411C7.257,6.631 7.232,6.611 7.293,6.565L9.679,9.775C10.268,9.337 10.637,8.797 10.913,8.272C11.167,7.788 11.404,7.192 11.648,6.583L7.936,5.094ZM5.61,11.342C4.717,10.53 4.218,10.069 3.94,9.733C3.81,9.576 3.837,9.569 3.877,9.682C3.937,9.847 3.976,10.131 3.874,10.437L0.082,9.161C-0.394,10.579 0.387,11.711 0.856,12.279C1.36,12.891 2.125,13.58 2.918,14.301L5.61,11.342ZM5.448,6.78C4.38,6.875 3.354,6.962 2.583,7.144C1.866,7.313 0.559,7.744 0.082,9.161L3.874,10.437C3.771,10.742 3.568,10.944 3.42,11.04C3.32,11.105 3.303,11.084 3.501,11.037C3.926,10.937 4.602,10.872 5.805,10.764L5.448,6.78ZM8.106,17.952C8.224,17.421 8.341,16.901 8.401,16.448C8.466,15.958 8.486,15.413 8.34,14.82L4.456,15.777C4.441,15.714 4.463,15.716 4.436,15.922C4.404,16.164 4.334,16.489 4.201,17.085L8.106,17.952ZM3.481,14.813C3.933,15.224 4.177,15.449 4.343,15.628C4.484,15.781 4.466,15.795 4.443,15.735L8.168,14.279C7.946,13.71 7.616,13.276 7.28,12.913C6.97,12.577 6.574,12.22 6.173,11.854L3.481,14.813ZM8.34,14.82C8.295,14.636 8.237,14.455 8.168,14.279L4.443,15.735C4.448,15.749 4.453,15.763 4.456,15.777L8.34,14.82ZM8.13,18.365C7.27,19.066 6.752,19.484 6.38,19.727C6.201,19.844 6.156,19.851 6.204,19.835C6.272,19.813 6.53,19.743 6.876,19.837L5.823,23.696C7.044,24.029 8.084,23.391 8.564,23.078C9.159,22.69 9.873,22.104 10.657,21.466L8.13,18.365ZM4.124,17.436C3.905,18.422 3.702,19.324 3.622,20.029C3.558,20.599 3.454,21.815 4.3,22.757L7.276,20.084C7.515,20.35 7.569,20.613 7.579,20.683C7.586,20.734 7.573,20.69 7.597,20.478C7.647,20.036 7.788,19.385 8.029,18.302L4.124,17.436ZM6.876,19.837C7.03,19.879 7.169,19.965 7.276,20.084L4.3,22.757C4.707,23.21 5.235,23.536 5.823,23.696L6.876,19.837ZM15.87,18.365C15.36,17.949 14.871,17.548 14.427,17.251C13.953,16.934 13.388,16.634 12.683,16.522L12.053,20.472C11.968,20.458 11.982,20.428 12.203,20.576C12.454,20.743 12.774,21.002 13.343,21.466L15.87,18.365ZM10.657,21.466C11.226,21.002 11.547,20.743 11.797,20.576C12.018,20.428 12.032,20.458 11.948,20.472L11.317,16.522C10.613,16.634 10.047,16.934 9.574,17.251C9.13,17.548 8.641,17.949 8.13,18.365L10.657,21.466ZM12.683,16.522C12.231,16.45 11.77,16.45 11.317,16.522L11.948,20.472C11.982,20.466 12.018,20.466 12.053,20.472L12.683,16.522ZM15.972,18.302C16.212,19.385 16.354,20.036 16.403,20.478C16.427,20.69 16.414,20.734 16.421,20.683C16.432,20.613 16.485,20.35 16.724,20.084L19.7,22.757C20.546,21.815 20.442,20.599 20.378,20.029C20.299,19.324 20.096,18.422 19.877,17.436L15.972,18.302ZM13.343,21.466C14.127,22.104 14.842,22.69 15.436,23.078C15.916,23.391 16.956,24.029 18.178,23.696L17.125,19.837C17.47,19.743 17.729,19.813 17.796,19.835C17.845,19.851 17.8,19.844 17.621,19.727C17.248,19.484 16.73,19.066 15.87,18.365L13.343,21.466ZM16.724,20.084C16.831,19.965 16.97,19.879 17.125,19.837L18.178,23.696C18.765,23.536 19.294,23.21 19.7,22.757L16.724,20.084ZM17.828,11.854C17.426,12.22 17.031,12.577 16.72,12.913C16.385,13.276 16.054,13.71 15.832,14.279L19.557,15.735C19.534,15.795 19.516,15.781 19.657,15.628C19.823,15.449 20.068,15.224 20.52,14.813L17.828,11.854ZM19.799,17.085C19.667,16.489 19.596,16.164 19.564,15.922C19.537,15.716 19.56,15.714 19.544,15.777L15.66,14.82C15.514,15.413 15.534,15.958 15.599,16.448C15.659,16.901 15.776,17.421 15.894,17.952L19.799,17.085ZM15.832,14.279C15.763,14.455 15.706,14.636 15.66,14.82L19.544,15.777C19.548,15.763 19.552,15.749 19.557,15.735L15.832,14.279ZM18.196,10.764C19.398,10.872 20.075,10.937 20.499,11.037C20.697,11.084 20.68,11.105 20.58,11.04C20.432,10.944 20.229,10.742 20.127,10.437L23.918,9.161C23.441,7.744 22.135,7.313 21.418,7.144C20.646,6.962 19.62,6.875 18.553,6.78L18.196,10.764ZM21.082,14.301C21.875,13.58 22.64,12.891 23.145,12.279C23.614,11.711 24.395,10.579 23.918,9.161L20.127,10.437C20.024,10.131 20.064,9.847 20.123,9.682C20.164,9.569 20.19,9.576 20.06,9.733C19.783,10.069 19.283,10.53 18.39,11.342L21.082,14.301ZM12.352,6.583C12.596,7.192 12.833,7.788 13.087,8.272C13.363,8.797 13.732,9.337 14.321,9.775L16.708,6.565C16.769,6.611 16.744,6.631 16.628,6.411C16.491,6.151 16.339,5.778 16.065,5.094L12.352,6.583ZM18.302,6.757C17.568,6.692 17.167,6.653 16.878,6.597C16.635,6.55 16.647,6.52 16.708,6.565L14.321,9.775C14.91,10.213 15.534,10.411 16.116,10.524C16.653,10.628 17.292,10.683 17.945,10.741L18.302,6.757ZM16.022,4.988C15.588,3.906 15.184,2.887 14.77,2.163C14.401,1.52 13.575,0.3 12,0.3L12,4.3C11.65,4.3 11.381,4.153 11.248,4.039C11.161,3.966 11.185,3.953 11.3,4.153C11.541,4.574 11.826,5.271 12.31,6.477L16.022,4.988ZM11.691,6.477C12.175,5.271 12.459,4.574 12.701,4.153C12.816,3.953 12.839,3.966 12.753,4.039C12.619,4.153 12.35,4.3 12,4.3L12,0.3C10.425,0.3 9.6,1.52 9.231,2.163C8.816,2.887 8.412,3.906 7.978,4.988L11.691,6.477Z" fill="#212125"/>
</svg>
