<svg width="40" height="38" viewBox="0 0 40 38" fill="none" xmlns="http://www.w3.org/2000/svg" xmlns:xlink="http://www.w3.org/1999/xlink">
<path d="M9.503,12.428L9.325,10.436L9.325,10.436L9.503,12.428ZM16.214,7.438L14.358,6.693L14.358,6.693L16.214,7.438ZM6.738,19.409L5.392,20.888L5.392,20.888L6.738,19.409ZM9.073,12.466L9.252,14.458L9.252,14.458L9.073,12.466ZM9.978,27.46L8.026,27.027L8.026,27.027L9.978,27.46ZM10.397,23.654L8.455,24.133L10.397,23.654ZM7.703,20.286L9.049,18.807L9.049,18.807L7.703,20.286ZM10.238,23.155L12.101,22.427L12.101,22.427L10.238,23.155ZM15.532,31.569L16.795,33.119L16.795,33.119L15.532,31.569ZM10.313,34.742L9.786,36.672L10.313,34.742ZM9.845,28.061L11.797,28.494L11.797,28.494L9.845,28.061ZM9.351,34.149L7.863,35.486L7.863,35.486L9.351,34.149ZM24.469,31.569L23.205,33.119L24.469,31.569ZM20.631,29.138L20.316,31.113L20.316,31.113L20.631,29.138ZM19.37,29.138L19.685,31.113L19.37,29.138ZM30.156,28.061L28.203,28.494L28.203,28.494L30.156,28.061ZM30.649,34.149L32.137,35.486L32.137,35.486L30.649,34.149ZM29.688,34.742L30.214,36.672L29.688,34.742ZM32.298,20.286L33.643,21.766L33.643,21.766L32.298,20.286ZM29.762,23.155L31.625,23.883L29.762,23.155ZM30.022,27.46L31.975,27.027L31.975,27.027L30.022,27.46ZM29.604,23.654L31.546,24.133L29.604,23.654ZM30.927,12.466L30.749,14.458L30.927,12.466ZM33.262,19.409L31.916,17.929L31.916,17.929L33.262,19.409ZM23.786,7.438L21.93,8.182L21.93,8.182L23.786,7.438ZM30.497,12.428L30.676,10.436L30.497,12.428ZM23.713,7.255L25.569,6.511L25.569,6.511L23.713,7.255ZM16.288,7.255L18.144,8L18.144,8L16.288,7.255ZM20,1.372L20,3.372L20,1.372ZM21.856,8L21.93,8.182L25.642,6.693L25.569,6.511L21.856,8ZM30.319,14.42L30.749,14.458L31.105,10.474L30.676,10.436L30.319,14.42ZM31.916,17.929L30.952,18.807L33.643,21.766L34.608,20.888L31.916,17.929ZM28.07,27.893L28.203,28.494L32.108,27.628L31.975,27.027L28.07,27.893ZM11.797,28.494L11.931,27.893L8.026,27.027L7.892,27.628L11.797,28.494ZM9.049,18.807L8.084,17.929L5.392,20.888L6.357,21.766L9.049,18.807ZM9.252,14.458L9.682,14.42L9.325,10.436L8.895,10.474L9.252,14.458ZM18.071,8.182L18.144,8L14.431,6.511L14.358,6.693L18.071,8.182ZM9.682,14.42C10.83,14.317 11.841,14.229 12.673,14.067C13.55,13.897 14.391,13.618 15.169,13.04L12.782,9.83C12.654,9.925 12.449,10.036 11.91,10.14C11.327,10.254 10.554,10.325 9.325,10.436L9.682,14.42ZM14.358,6.693C13.899,7.839 13.608,8.558 13.331,9.084C13.076,9.57 12.91,9.735 12.782,9.83L15.169,13.04C15.947,12.461 16.456,11.736 16.872,10.945C17.266,10.195 17.642,9.252 18.071,8.182L14.358,6.693ZM8.084,17.929C6.589,16.569 5.638,15.697 5.081,15.023C4.488,14.305 4.862,14.427 4.715,14.864L0.924,13.589C0.36,15.264 1.248,16.663 1.997,17.569C2.781,18.519 3.997,19.619 5.392,20.888L8.084,17.929ZM8.895,10.474C7.016,10.642 5.382,10.784 4.184,11.066C3.04,11.336 1.487,11.914 0.924,13.589L4.715,14.864C4.568,15.302 4.196,15.173 5.103,14.959C5.954,14.758 7.239,14.638 9.252,14.458L8.895,10.474ZM11.931,27.893C12.137,26.961 12.322,26.139 12.415,25.437C12.513,24.699 12.531,23.958 12.338,23.176L8.455,24.133C8.486,24.26 8.51,24.457 8.449,24.911C8.384,25.402 8.247,26.028 8.026,27.027L11.931,27.893ZM6.357,21.766C7.114,22.454 7.587,22.887 7.923,23.25C8.234,23.587 8.328,23.762 8.376,23.883L12.101,22.427C11.808,21.676 11.366,21.082 10.86,20.535C10.379,20.015 9.755,19.45 9.049,18.807L6.357,21.766ZM12.338,23.176C12.276,22.921 12.196,22.671 12.101,22.427L8.376,23.883C8.407,23.965 8.434,24.048 8.455,24.133L12.338,23.176ZM14.268,30.019C12.821,31.198 11.863,31.975 11.145,32.443C10.314,32.985 10.403,32.694 10.839,32.813L9.786,36.672C11.214,37.062 12.505,36.332 13.33,35.794C14.269,35.181 15.425,34.236 16.795,33.119L14.268,30.019ZM7.892,27.628C7.509,29.354 7.183,30.81 7.057,31.925C6.947,32.904 6.874,34.384 7.863,35.486L10.839,32.813C11.141,33.149 10.921,33.36 11.032,32.373C11.128,31.522 11.393,30.317 11.797,28.494L7.892,27.628ZM10.839,32.813L10.839,32.813L7.863,35.486C8.377,36.058 9.044,36.47 9.786,36.672L10.839,32.813ZM25.732,30.019C24.836,29.289 24.058,28.652 23.366,28.189C22.644,27.706 21.872,27.311 20.946,27.163L20.316,31.113C20.452,31.135 20.674,31.201 21.142,31.514C21.641,31.847 22.251,32.342 23.205,33.119L25.732,30.019ZM16.795,33.119C17.75,32.342 18.359,31.847 18.858,31.514C19.327,31.201 19.548,31.135 19.685,31.113L19.054,27.163C18.129,27.311 17.356,27.706 16.634,28.189C15.942,28.652 15.164,29.289 14.268,30.019L16.795,33.119ZM20.946,27.163C20.32,27.063 19.681,27.063 19.054,27.163L19.685,31.113C19.894,31.079 20.107,31.079 20.316,31.113L20.946,27.163ZM28.203,28.494C28.608,30.317 28.872,31.522 28.968,32.373C29.079,33.36 28.86,33.149 29.161,32.813L32.137,35.486C33.126,34.384 33.053,32.904 32.943,31.925C32.817,30.81 32.491,29.354 32.108,27.628L28.203,28.494ZM23.205,33.119C24.576,34.236 25.731,35.181 26.67,35.794C27.496,36.332 28.786,37.062 30.214,36.672L29.161,32.813C29.597,32.694 29.687,32.985 28.855,32.443C28.137,31.975 27.179,31.198 25.732,30.019L23.205,33.119ZM29.161,32.813L29.161,32.813L30.214,36.672C30.956,36.47 31.624,36.058 32.137,35.486L29.161,32.813ZM30.952,18.807C30.245,19.45 29.621,20.015 29.14,20.535C28.635,21.082 28.193,21.676 27.899,22.427L31.625,23.883C31.672,23.762 31.767,23.587 32.078,23.25C32.414,22.887 32.887,22.454 33.643,21.766L30.952,18.807ZM31.975,27.027C31.753,26.028 31.616,25.402 31.551,24.911C31.491,24.457 31.514,24.26 31.546,24.133L27.662,23.176C27.469,23.958 27.488,24.699 27.586,25.437C27.679,26.139 27.863,26.961 28.07,27.893L31.975,27.027ZM27.899,22.427C27.804,22.671 27.725,22.921 27.662,23.176L31.546,24.133C31.567,24.048 31.593,23.965 31.625,23.883L27.899,22.427ZM30.749,14.458C32.762,14.638 34.046,14.758 34.898,14.959C35.804,15.173 35.432,15.302 35.285,14.864L39.077,13.589C38.513,11.914 36.96,11.336 35.817,11.066C34.618,10.784 32.984,10.642 31.105,10.474L30.749,14.458ZM34.608,20.888C36.003,19.619 37.22,18.519 38.004,17.569C38.752,16.663 39.64,15.264 39.077,13.589L35.285,14.864C35.138,14.427 35.512,14.305 34.919,15.023C34.362,15.697 33.411,16.569 31.916,17.929L34.608,20.888ZM21.93,8.182C22.359,9.252 22.734,10.195 23.129,10.945C23.544,11.736 24.054,12.461 24.831,13.04L27.218,9.83C27.09,9.735 26.924,9.57 26.669,9.084C26.393,8.558 26.102,7.839 25.642,6.693L21.93,8.182ZM30.676,10.436C29.446,10.325 28.674,10.254 28.09,10.14C27.552,10.036 27.346,9.925 27.218,9.83L24.831,13.04C25.609,13.618 26.451,13.897 27.328,14.067C28.159,14.229 29.171,14.317 30.319,14.42L30.676,10.436ZM25.569,6.511C24.807,4.611 24.158,2.98 23.509,1.848C22.905,0.796 21.857,-0.628 20,-0.628L20,3.372C19.496,3.372 19.517,2.929 20.039,3.838C20.514,4.667 21.045,5.977 21.856,8L25.569,6.511ZM18.144,8C18.955,5.977 19.486,4.667 19.962,3.838C20.483,2.929 20.505,3.372 20,3.372L20,-0.628C18.143,-0.628 17.095,0.796 16.492,1.848C15.843,2.98 15.193,4.611 14.431,6.511L18.144,8Z" fill="#F0E600"/>
</svg>
