<svg width="44" height="44" viewBox="0 0 44 44" fill="none" xmlns="http://www.w3.org/2000/svg" xmlns:xlink="http://www.w3.org/1999/xlink">
<path d="M26.272,4.723L27.267,4.623L27.267,4.623L26.272,4.723ZM25.968,3.083L25.079,3.542L25.079,3.542L25.968,3.083ZM26.862,7.636L27.657,7.029L27.657,7.029L26.862,7.636ZM28.719,8.405L28.586,7.414L28.586,7.414L28.719,8.405ZM31.196,6.762L31.829,7.536L31.829,7.536L31.196,6.762ZM32.571,5.818L32.875,6.771L32.875,6.771L32.571,5.818ZM33.974,5.888L34.372,4.971L34.372,4.971L33.974,5.888ZM35.249,6.964L34.541,7.671L34.541,7.671L35.249,6.964ZM37.036,8.751L37.743,8.044L37.743,8.044L37.036,8.751ZM38.112,10.026L39.029,9.628L39.029,9.628L38.112,10.026ZM38.182,11.429L39.134,11.734L39.134,11.734L38.182,11.429ZM37.238,12.804L36.464,12.171L36.464,12.171L37.238,12.804ZM35.595,15.281L34.604,15.148L34.604,15.148L35.595,15.281ZM36.364,17.138L35.757,17.933L35.757,17.933L36.364,17.138ZM39.277,17.728L39.377,16.733L39.377,16.733L39.277,17.728ZM40.917,18.032L41.375,17.144L41.375,17.144L40.917,18.032ZM41.86,19.075L42.79,18.707L42.79,18.707L41.86,19.075ZM41.86,24.925L40.93,24.558L40.93,24.558L41.86,24.925ZM40.917,25.968L41.375,26.856L41.375,26.856L40.917,25.968ZM39.277,26.272L39.178,25.277L39.145,25.28L39.113,25.286L39.277,26.272ZM39.277,26.272L39.377,27.267L39.409,27.264L39.442,27.259L39.277,26.272ZM36.365,26.862L35.759,26.067L35.759,26.067L36.365,26.862ZM35.596,28.719L34.605,28.853L34.605,28.853L35.596,28.719ZM37.238,31.195L36.464,31.828L36.464,31.828L37.238,31.195ZM38.182,32.57L37.229,32.874L37.229,32.874L38.182,32.57ZM38.112,33.974L37.194,33.576L37.194,33.576L38.112,33.974ZM37.036,35.248L37.743,35.955L37.743,35.955L37.036,35.248ZM35.249,37.035L34.542,36.328L34.542,36.328L35.249,37.035ZM33.975,38.111L34.372,39.028L34.372,39.028L33.975,38.111ZM32.571,38.181L32.266,39.133L32.266,39.133L32.571,38.181ZM31.196,37.237L31.829,36.463L31.821,36.456L31.196,37.237ZM31.196,37.237L30.563,38.011L30.571,38.018L31.196,37.237ZM28.719,35.594L28.852,34.603L28.852,34.603L28.719,35.594ZM26.862,36.363L27.657,36.97L27.657,36.97L26.862,36.363ZM26.272,39.277L25.277,39.177L25.277,39.177L26.272,39.277ZM25.967,40.917L25.079,40.458L25.079,40.458L25.967,40.917ZM24.926,41.86L24.558,40.93L24.558,40.93L24.926,41.86ZM19.075,41.86L19.442,40.93L19.442,40.93L19.075,41.86ZM18.032,40.917L18.921,40.458L18.921,40.458L18.032,40.917ZM17.728,39.277L16.733,39.377L16.733,39.377L17.728,39.277ZM17.138,36.364L16.343,36.971L16.343,36.971L17.138,36.364ZM15.281,35.595L15.148,34.604L15.148,34.604L15.281,35.595ZM12.804,37.238L12.171,36.464L12.155,36.477L12.14,36.49L12.804,37.238ZM12.804,37.238L13.437,38.012L13.453,37.999L13.468,37.985L12.804,37.238ZM11.429,38.182L11.733,39.134L11.733,39.134L11.429,38.182ZM10.025,38.112L9.628,39.029L9.628,39.029L10.025,38.112ZM8.751,37.036L9.458,36.328L9.458,36.328L8.751,37.036ZM6.964,35.249L6.257,35.956L6.257,35.956L6.964,35.249ZM5.888,33.975L6.806,33.577L6.806,33.577L5.888,33.975ZM5.818,32.571L6.771,32.875L6.771,32.875L5.818,32.571ZM6.762,31.196L7.536,31.829L7.536,31.829L6.762,31.196ZM8.405,28.719L9.396,28.852L9.396,28.852L8.405,28.719ZM7.636,26.862L8.242,26.067L8.242,26.067L7.636,26.862ZM4.723,26.272L4.623,27.267L4.623,27.267L4.723,26.272ZM3.083,25.968L3.542,25.079L3.542,25.079L3.083,25.968ZM2.14,24.925L1.21,25.293L1.21,25.293L2.14,24.925ZM2.14,19.074L1.21,18.707L1.21,18.707L2.14,19.074ZM3.083,18.033L2.625,17.144L2.625,17.144L3.083,18.033ZM4.723,17.728L4.723,16.728L4.673,16.728L4.624,16.733L4.723,17.728ZM4.723,17.728L4.723,18.728L4.773,18.728L4.823,18.723L4.723,17.728ZM7.637,17.138L7.03,16.343L7.03,16.343L7.637,17.138ZM8.406,15.281L9.397,15.148L9.397,15.148L8.406,15.281ZM6.763,12.804L7.537,12.17L7.537,12.17L6.763,12.804ZM5.818,11.428L6.771,11.124L6.771,11.124L5.818,11.428ZM5.888,10.025L4.971,9.627L4.971,9.627L5.888,10.025ZM6.965,8.75L7.672,9.457L7.672,9.457L6.965,8.75ZM8.751,6.964L8.044,6.256L8.044,6.256L8.751,6.964ZM10.026,5.887L9.628,4.97L9.628,4.97L10.026,5.887ZM11.429,5.817L11.734,4.865L11.734,4.865L11.429,5.817ZM12.804,6.762L13.438,5.988L13.438,5.988L12.804,6.762ZM15.281,8.404L15.414,7.413L15.414,7.413L15.281,8.404ZM17.138,7.635L16.343,7.028L16.343,7.028L17.138,7.635ZM17.728,4.723L18.723,4.822L18.723,4.822L17.728,4.723ZM18.032,3.083L17.144,2.625L17.144,2.625L18.032,3.083ZM19.075,2.14L19.442,3.07L19.442,3.07L19.075,2.14ZM24.925,2.14L25.293,1.21L25.293,1.21L24.925,2.14ZM27.267,4.623C27.225,4.203 27.189,3.839 27.139,3.539C27.087,3.23 27.01,2.923 26.856,2.625L25.079,3.542C25.099,3.582 25.132,3.662 25.167,3.87C25.203,4.089 25.233,4.376 25.277,4.822L27.267,4.623ZM27.657,7.029C27.635,7 27.561,6.877 27.484,6.449C27.409,6.03 27.351,5.461 27.267,4.623L25.277,4.822C25.358,5.626 25.423,6.289 25.516,6.803C25.607,7.308 25.746,7.822 26.067,8.242L27.657,7.029ZM28.586,7.414C28.23,7.462 27.875,7.315 27.657,7.029L26.067,8.242C26.721,9.099 27.784,9.54 28.852,9.396L28.586,7.414ZM30.563,5.988C29.911,6.521 29.468,6.883 29.118,7.126C28.761,7.374 28.623,7.409 28.586,7.414L28.852,9.396C29.377,9.325 29.838,9.061 30.26,8.768C30.689,8.47 31.204,8.048 31.829,7.536L30.563,5.988ZM32.266,4.866C31.946,4.968 31.675,5.13 31.42,5.312C31.172,5.489 30.89,5.721 30.563,5.988L31.829,7.536C32.177,7.252 32.4,7.07 32.58,6.941C32.753,6.818 32.832,6.785 32.875,6.771L32.266,4.866ZM34.372,4.971C33.706,4.682 32.958,4.645 32.266,4.866L32.875,6.771C33.105,6.697 33.355,6.71 33.577,6.806L34.372,4.971ZM35.956,6.257C35.657,5.959 35.399,5.7 35.17,5.499C34.934,5.293 34.68,5.104 34.372,4.971L33.577,6.806C33.618,6.824 33.694,6.865 33.853,7.005C34.02,7.151 34.224,7.354 34.541,7.671L35.956,6.257ZM37.743,8.044L35.956,6.257L34.541,7.671L36.328,9.458L37.743,8.044ZM39.029,9.628C38.896,9.32 38.707,9.066 38.501,8.83C38.3,8.601 38.041,8.343 37.743,8.044L36.328,9.458C36.646,9.776 36.849,9.98 36.995,10.147C37.135,10.306 37.176,10.382 37.194,10.423L39.029,9.628ZM39.134,11.734C39.355,11.042 39.318,10.294 39.029,9.628L37.194,10.423C37.29,10.645 37.303,10.894 37.229,11.125L39.134,11.734ZM38.012,13.437C38.279,13.11 38.511,12.828 38.688,12.58C38.87,12.324 39.032,12.054 39.134,11.734L37.229,11.125C37.215,11.168 37.182,11.247 37.059,11.42C36.93,11.6 36.748,11.823 36.464,12.171L38.012,13.437ZM36.586,15.414C36.591,15.377 36.626,15.239 36.874,14.882C37.117,14.532 37.479,14.089 38.012,13.437L36.464,12.171C35.952,12.796 35.53,13.311 35.232,13.74C34.939,14.162 34.674,14.623 34.604,15.148L36.586,15.414ZM36.971,16.343C36.685,16.125 36.538,15.77 36.586,15.414L34.604,15.148C34.46,16.216 34.901,17.279 35.757,17.933L36.971,16.343ZM39.377,16.733C38.539,16.649 37.97,16.591 37.551,16.516C37.122,16.439 37,16.365 36.971,16.343L35.757,17.933C36.178,18.254 36.692,18.393 37.197,18.484C37.711,18.577 38.373,18.642 39.178,18.723L39.377,16.733ZM41.375,17.144C41.077,16.99 40.77,16.913 40.461,16.861C40.161,16.811 39.797,16.775 39.377,16.733L39.178,18.723C39.624,18.767 39.911,18.797 40.13,18.833C40.338,18.868 40.418,18.901 40.458,18.921L41.375,17.144ZM42.79,18.707C42.523,18.032 42.02,17.477 41.375,17.144L40.458,18.921C40.673,19.032 40.841,19.217 40.93,19.442L42.79,18.707ZM43,20.736C43,20.314 43.001,19.948 42.98,19.645C42.959,19.332 42.913,19.019 42.79,18.707L40.93,19.442C40.947,19.484 40.971,19.567 40.985,19.778C40.999,19.999 41,20.287 41,20.736L43,20.736ZM43,23.264L43,20.736L41,20.736L41,23.264L43,23.264ZM42.79,25.293C42.913,24.981 42.959,24.668 42.98,24.355C43.001,24.052 43,23.686 43,23.264L41,23.264C41,23.713 40.999,24.001 40.985,24.222C40.971,24.433 40.947,24.516 40.93,24.558L42.79,25.293ZM41.375,26.856C42.02,26.524 42.523,25.968 42.79,25.293L40.93,24.558C40.841,24.783 40.673,24.968 40.458,25.079L41.375,26.856ZM39.377,27.267C39.797,27.225 40.161,27.189 40.461,27.139C40.77,27.087 41.077,27.01 41.375,26.856L40.458,25.079C40.418,25.1 40.338,25.132 40.13,25.167C39.911,25.203 39.625,25.233 39.178,25.277L39.377,27.267ZM39.442,27.259L39.442,27.259L39.113,25.286L39.113,25.286L39.442,27.259ZM36.971,27.657C37.001,27.634 37.123,27.561 37.552,27.484C37.97,27.409 38.539,27.351 39.377,27.267L39.178,25.277C38.374,25.358 37.712,25.423 37.197,25.516C36.693,25.606 36.179,25.746 35.759,26.067L36.971,27.657ZM36.587,28.586C36.539,28.23 36.686,27.875 36.971,27.657L35.759,26.067C34.901,26.72 34.461,27.784 34.605,28.853L36.587,28.586ZM38.012,30.562C37.479,29.911 37.118,29.468 36.875,29.118C36.626,28.761 36.592,28.623 36.587,28.586L34.605,28.853C34.675,29.377 34.94,29.838 35.232,30.26C35.531,30.689 35.952,31.203 36.464,31.828L38.012,30.562ZM39.134,32.265C39.032,31.945 38.87,31.674 38.688,31.419C38.511,31.172 38.279,30.889 38.012,30.562L36.464,31.828C36.748,32.176 36.93,32.399 37.059,32.579C37.182,32.752 37.215,32.831 37.229,32.874L39.134,32.265ZM39.029,34.372C39.318,33.705 39.355,32.957 39.134,32.265L37.229,32.874C37.303,33.105 37.29,33.354 37.194,33.576L39.029,34.372ZM37.743,35.955C38.042,35.656 38.301,35.398 38.501,35.169C38.707,34.933 38.896,34.68 39.029,34.372L37.194,33.576C37.176,33.618 37.135,33.693 36.995,33.852C36.849,34.019 36.646,34.223 36.329,34.54L37.743,35.955ZM35.956,37.742L37.743,35.955L36.329,34.54L34.542,36.328L35.956,37.742ZM34.372,39.028C34.68,38.895 34.934,38.706 35.17,38.5C35.399,38.3 35.657,38.041 35.956,37.742L34.542,36.328C34.224,36.645 34.02,36.848 33.853,36.994C33.694,37.134 33.618,37.175 33.577,37.193L34.372,39.028ZM32.266,39.133C32.958,39.354 33.706,39.317 34.372,39.028L33.577,37.193C33.355,37.289 33.106,37.302 32.875,37.228L32.266,39.133ZM30.563,38.011C30.89,38.278 31.172,38.51 31.42,38.687C31.676,38.869 31.946,39.031 32.266,39.133L32.875,37.228C32.832,37.214 32.753,37.181 32.58,37.058C32.4,36.929 32.177,36.747 31.829,36.463L30.563,38.011ZM30.571,38.018L30.571,38.018L31.821,36.456L31.821,36.456L30.571,38.018ZM28.586,36.585C28.623,36.59 28.761,36.625 29.118,36.873C29.468,37.116 29.911,37.478 30.563,38.011L31.829,36.463C31.204,35.951 30.689,35.529 30.26,35.231C29.838,34.938 29.377,34.674 28.852,34.603L28.586,36.585ZM27.657,36.97C27.875,36.684 28.23,36.537 28.586,36.585L28.852,34.603C27.784,34.459 26.721,34.9 26.067,35.757L27.657,36.97ZM27.267,39.376C27.351,38.538 27.409,37.969 27.484,37.55C27.561,37.122 27.635,36.999 27.657,36.97L26.067,35.757C25.746,36.177 25.607,36.691 25.516,37.196C25.423,37.711 25.358,38.373 25.277,39.177L27.267,39.376ZM26.856,41.375C27.01,41.077 27.087,40.77 27.139,40.461C27.189,40.161 27.225,39.797 27.267,39.376L25.277,39.177C25.233,39.624 25.203,39.911 25.167,40.13C25.132,40.338 25.099,40.418 25.079,40.458L26.856,41.375ZM25.293,42.79C25.968,42.523 26.523,42.02 26.856,41.375L25.079,40.458C24.968,40.673 24.783,40.841 24.558,40.93L25.293,42.79ZM23.263,43C23.686,43 24.052,43.001 24.355,42.98C24.668,42.959 24.981,42.913 25.293,42.79L24.558,40.93C24.516,40.947 24.433,40.971 24.222,40.985C24.001,40.999 23.713,41 23.263,41L23.263,43ZM20.736,43L23.263,43L23.263,41L20.736,41L20.736,43ZM18.707,42.79C19.019,42.913 19.332,42.959 19.645,42.98C19.948,43.001 20.314,43 20.736,43L20.736,41C20.287,41 19.999,40.999 19.778,40.985C19.567,40.971 19.484,40.947 19.442,40.93L18.707,42.79ZM17.144,41.375C17.476,42.02 18.032,42.523 18.707,42.79L19.442,40.93C19.217,40.841 19.032,40.673 18.921,40.458L17.144,41.375ZM16.733,39.377C16.775,39.797 16.811,40.161 16.861,40.461C16.913,40.77 16.99,41.077 17.144,41.375L18.921,40.458C18.901,40.418 18.868,40.338 18.833,40.13C18.797,39.911 18.767,39.624 18.723,39.178L16.733,39.377ZM16.343,36.971C16.365,37 16.439,37.122 16.516,37.551C16.591,37.97 16.649,38.539 16.733,39.377L18.723,39.178C18.642,38.373 18.577,37.711 18.484,37.197C18.393,36.692 18.254,36.178 17.933,35.757L16.343,36.971ZM15.414,36.586C15.77,36.538 16.125,36.685 16.343,36.971L17.933,35.757C17.279,34.901 16.216,34.46 15.148,34.604L15.414,36.586ZM13.437,38.012C14.089,37.479 14.532,37.117 14.882,36.874C15.239,36.626 15.377,36.591 15.414,36.586L15.148,34.604C14.623,34.674 14.162,34.939 13.74,35.232C13.311,35.53 12.796,35.952 12.171,36.464L13.437,38.012ZM13.468,37.985L13.469,37.985L12.14,36.49L12.14,36.49L13.468,37.985ZM11.733,39.134C12.053,39.032 12.324,38.87 12.58,38.688C12.828,38.511 13.11,38.279 13.437,38.012L12.171,36.464C11.823,36.748 11.6,36.93 11.42,37.059C11.247,37.182 11.168,37.215 11.125,37.229L11.733,39.134ZM9.628,39.029C10.294,39.318 11.042,39.355 11.733,39.134L11.125,37.229C10.894,37.303 10.645,37.29 10.423,37.194L9.628,39.029ZM8.044,37.743C8.343,38.041 8.601,38.301 8.83,38.501C9.066,38.707 9.32,38.896 9.628,39.029L10.423,37.194C10.382,37.176 10.306,37.135 10.147,36.995C9.98,36.849 9.776,36.646 9.458,36.328L8.044,37.743ZM6.257,35.956L8.044,37.743L9.458,36.328L7.671,34.542L6.257,35.956ZM4.971,34.372C5.104,34.68 5.293,34.934 5.499,35.17C5.699,35.399 5.958,35.657 6.257,35.956L7.671,34.542C7.354,34.224 7.151,34.02 7.005,33.853C6.865,33.694 6.824,33.618 6.806,33.577L4.971,34.372ZM4.866,32.266C4.645,32.958 4.682,33.706 4.971,34.372L6.806,33.577C6.71,33.355 6.697,33.106 6.771,32.875L4.866,32.266ZM5.988,30.563C5.721,30.89 5.489,31.172 5.312,31.42C5.13,31.676 4.968,31.947 4.866,32.266L6.771,32.875C6.785,32.832 6.818,32.753 6.941,32.58C7.07,32.4 7.252,32.177 7.536,31.829L5.988,30.563ZM7.414,28.586C7.409,28.623 7.374,28.761 7.126,29.118C6.883,29.468 6.521,29.911 5.988,30.563L7.536,31.829C8.048,31.204 8.47,30.689 8.768,30.26C9.061,29.838 9.325,29.377 9.396,28.852L7.414,28.586ZM7.029,27.657C7.315,27.875 7.462,28.229 7.414,28.586L9.396,28.852C9.54,27.784 9.099,26.721 8.242,26.067L7.029,27.657ZM4.623,27.267C5.461,27.351 6.03,27.409 6.449,27.484C6.877,27.561 7,27.635 7.029,27.657L8.242,26.067C7.822,25.746 7.308,25.607 6.803,25.516C6.289,25.423 5.626,25.358 4.822,25.277L4.623,27.267ZM2.625,26.856C2.923,27.01 3.23,27.087 3.539,27.139C3.839,27.189 4.203,27.225 4.623,27.267L4.822,25.277C4.375,25.233 4.089,25.203 3.87,25.167C3.662,25.132 3.582,25.099 3.542,25.079L2.625,26.856ZM1.21,25.293C1.477,25.968 1.98,26.524 2.625,26.856L3.542,25.079C3.327,24.968 3.159,24.783 3.07,24.558L1.21,25.293ZM1,23.264C1,23.686 0.999,24.052 1.02,24.355C1.041,24.668 1.087,24.981 1.21,25.293L3.07,24.558C3.053,24.516 3.029,24.433 3.015,24.222C3.001,24.001 3,23.713 3,23.264L1,23.264ZM1,20.737L1,23.264L3,23.264L3,20.737L1,20.737ZM1.21,18.707C1.087,19.019 1.041,19.332 1.02,19.645C0.999,19.948 1,20.314 1,20.737L3,20.737C3,20.287 3.001,19.999 3.015,19.778C3.029,19.567 3.053,19.484 3.07,19.442L1.21,18.707ZM2.625,17.144C1.98,17.477 1.477,18.032 1.21,18.707L3.07,19.442C3.159,19.217 3.327,19.032 3.542,18.921L2.625,17.144ZM4.624,16.733C4.203,16.775 3.839,16.811 3.539,16.861C3.23,16.913 2.923,16.99 2.625,17.144L3.542,18.921C3.582,18.901 3.662,18.868 3.87,18.833C4.089,18.797 4.376,18.767 4.823,18.723L4.624,16.733ZM4.723,16.728L4.723,16.728L4.723,18.728L4.723,18.728L4.723,16.728ZM4.723,16.728L4.723,16.728L4.723,18.728L4.723,18.728L4.723,16.728ZM7.03,16.343C7.001,16.365 6.878,16.439 6.45,16.516C6.031,16.591 5.461,16.649 4.624,16.733L4.823,18.723C5.627,18.642 6.289,18.577 6.804,18.484C7.309,18.393 7.823,18.254 8.243,17.933L7.03,16.343ZM7.415,15.414C7.462,15.77 7.316,16.125 7.03,16.343L8.243,17.933C9.1,17.279 9.54,16.216 9.397,15.148L7.415,15.414ZM5.989,13.437C6.522,14.089 6.884,14.532 7.127,14.882C7.375,15.239 7.41,15.378 7.415,15.414L9.397,15.148C9.326,14.624 9.062,14.162 8.769,13.74C8.47,13.311 8.048,12.796 7.537,12.17L5.989,13.437ZM4.866,11.732C4.968,12.052 5.13,12.323 5.312,12.579C5.489,12.827 5.721,13.11 5.989,13.437L7.537,12.17C7.252,11.823 7.07,11.599 6.941,11.419C6.818,11.246 6.785,11.167 6.771,11.124L4.866,11.732ZM4.971,9.627C4.682,10.293 4.645,11.041 4.866,11.732L6.771,11.124C6.697,10.894 6.71,10.644 6.806,10.422L4.971,9.627ZM6.258,8.043C5.959,8.342 5.7,8.6 5.499,8.829C5.293,9.066 5.104,9.319 4.971,9.627L6.806,10.422C6.824,10.381 6.865,10.305 7.005,10.146C7.151,9.979 7.354,9.775 7.672,9.457L6.258,8.043ZM8.044,6.256L6.258,8.043L7.672,9.457L9.458,7.671L8.044,6.256ZM8.044,6.256L8.044,6.256L9.458,7.671L9.458,7.671L8.044,6.256ZM9.628,4.97C9.32,5.103 9.066,5.292 8.83,5.499C8.601,5.699 8.343,5.958 8.044,6.256L9.458,7.671C9.776,7.353 9.98,7.15 10.147,7.004C10.306,6.864 10.382,6.823 10.423,6.805L9.628,4.97ZM11.734,4.865C11.042,4.644 10.294,4.681 9.628,4.97L10.423,6.805C10.645,6.709 10.894,6.696 11.125,6.77L11.734,4.865ZM13.438,5.988C13.111,5.72 12.828,5.488 12.58,5.311C12.324,5.129 12.053,4.967 11.734,4.865L11.125,6.77C11.168,6.784 11.247,6.817 11.42,6.94C11.6,7.069 11.824,7.251 12.171,7.535L13.438,5.988ZM15.414,7.413C15.377,7.408 15.239,7.374 14.882,7.125C14.532,6.882 14.089,6.521 13.438,5.988L12.171,7.535C12.797,8.047 13.311,8.469 13.74,8.767C14.162,9.06 14.623,9.325 15.147,9.395L15.414,7.413ZM16.343,7.028C16.125,7.314 15.771,7.461 15.414,7.413L15.147,9.395C16.216,9.539 17.279,9.099 17.933,8.241L16.343,7.028ZM16.733,4.623C16.649,5.461 16.591,6.029 16.516,6.448C16.439,6.877 16.366,6.999 16.343,7.028L17.933,8.241C18.254,7.821 18.394,7.307 18.484,6.802C18.577,6.288 18.642,5.626 18.723,4.822L16.733,4.623ZM17.144,2.625C16.99,2.924 16.913,3.23 16.861,3.539C16.811,3.839 16.775,4.203 16.733,4.623L18.723,4.822C18.767,4.375 18.797,4.089 18.833,3.87C18.868,3.662 18.9,3.582 18.921,3.542L17.144,2.625ZM18.707,1.21C18.032,1.477 17.476,1.98 17.144,2.625L18.921,3.542C19.032,3.327 19.217,3.159 19.442,3.07L18.707,1.21ZM20.736,1C20.314,1 19.948,0.999 19.645,1.02C19.332,1.041 19.019,1.087 18.707,1.21L19.442,3.07C19.484,3.053 19.567,3.029 19.778,3.015C19.999,3.001 20.287,3 20.736,3L20.736,1ZM23.264,1L20.736,1L20.736,3L23.264,3L23.264,1ZM25.293,1.21C24.981,1.087 24.668,1.041 24.355,1.02C24.052,0.999 23.686,1 23.264,1L23.264,3C23.713,3 24.001,3.001 24.222,3.015C24.433,3.029 24.516,3.053 24.558,3.07L25.293,1.21ZM26.856,2.625C26.524,1.98 25.968,1.477 25.293,1.21L24.558,3.07C24.783,3.159 24.968,3.327 25.079,3.542L26.856,2.625ZM29,22C29,25.866 25.866,29 22,29L22,31C26.971,31 31,26.971 31,22L29,22ZM22,15C25.866,15 29,18.134 29,22L31,22C31,17.029 26.971,13 22,13L22,15ZM15,22C15,18.134 18.134,15 22,15L22,13C17.029,13 13,17.029 13,22L15,22ZM22,29C18.134,29 15,25.866 15,22L13,22C13,26.971 17.029,31 22,31L22,29Z" fill="#FFFFFF"/>
</svg>
