<svg width="44" height="44" viewBox="0 0 44 44" fill="none" xmlns="http://www.w3.org/2000/svg" xmlns:xlink="http://www.w3.org/1999/xlink">
<path d="M29.333,14.667C29.333,18.717 26.05,22 22,22C17.95,22 14.667,18.717 14.667,14.667C14.667,10.617 17.95,7.333 22,7.333C26.05,7.333 29.333,10.617 29.333,14.667Z" stroke="#12151B" stroke-width="1" stroke-miterlimit="3.999327" stroke-linecap="round"/>
<path d="M35.633,33.753L34.639,33.87L35.633,33.753ZM19.607,25.75L24.393,25.75L24.393,23.75L19.607,23.75L19.607,25.75ZM34.295,31.923C34.441,32.541 34.56,33.191 34.639,33.87L36.626,33.637C36.537,32.877 36.404,32.15 36.241,31.462L34.295,31.923ZM33.75,34.75L10.25,34.75L10.25,36.75L33.75,36.75L33.75,34.75ZM9.361,33.87C9.44,33.191 9.559,32.541 9.705,31.923L7.759,31.462C7.596,32.15 7.463,32.877 7.374,33.637L9.361,33.87ZM10.25,34.75C9.663,34.75 9.311,34.295 9.361,33.87L7.374,33.637C7.167,35.405 8.627,36.75 10.25,36.75L10.25,34.75ZM34.639,33.87C34.689,34.295 34.337,34.75 33.75,34.75L33.75,36.75C35.373,36.75 36.833,35.405 36.626,33.637L34.639,33.87ZM24.393,25.75C29.055,25.75 33.333,27.859 34.295,31.923L36.241,31.462C34.965,26.067 29.453,23.75 24.393,23.75L24.393,25.75ZM19.607,23.75C14.547,23.75 9.035,26.067 7.759,31.462L9.705,31.923C10.667,27.859 14.945,25.75 19.607,25.75L19.607,23.75Z" fill="#12151B"/>
</svg>
