<svg width="52" height="56" viewBox="0 0 52 56" fill="none" xmlns="http://www.w3.org/2000/svg" xmlns:xlink="http://www.w3.org/1999/xlink">
<path d="M5.073,8.25C5.073,6.738 6.215,5.5 7.61,5.5L20.293,5.5C21.689,5.5 22.83,4.262 22.83,2.75C22.83,1.237 21.689,0 20.293,0L5.073,0C2.283,0 0,2.475 0,5.5L0,22C0,23.513 1.142,24.75 2.537,24.75C3.932,24.75 5.073,23.513 5.073,22L5.073,8.25ZM19.304,31.597L11.796,41.773C11.136,42.68 11.719,44 12.785,44L38.05,44C38.286,44 38.517,43.929 38.717,43.795C38.917,43.66 39.079,43.468 39.185,43.24C39.29,43.012 39.334,42.756 39.313,42.502C39.292,42.247 39.206,42.004 39.065,41.8L33.991,34.458C33.484,33.715 32.469,33.715 31.962,34.458L27.827,40.452L21.283,31.597C21.164,31.437 21.013,31.307 20.842,31.218C20.671,31.129 20.483,31.083 20.293,31.083C20.103,31.083 19.916,31.129 19.745,31.218C19.574,31.307 19.423,31.437 19.304,31.597ZM38.05,17.875C38.05,15.593 36.351,13.75 34.245,13.75C32.14,13.75 30.44,15.593 30.44,17.875C30.44,20.157 32.14,22 34.245,22C36.351,22 38.05,20.157 38.05,17.875ZM45.66,0L30.44,0C29.045,0 27.903,1.237 27.903,2.75C27.903,4.262 29.045,5.5 30.44,5.5L43.123,5.5C44.519,5.5 45.66,6.738 45.66,8.25L45.66,22C45.66,23.513 46.802,24.75 48.197,24.75C49.592,24.75 50.733,23.513 50.733,22L50.733,5.5C50.733,2.475 48.45,0 45.66,0ZM45.66,46.75C45.66,48.263 44.519,49.5 43.123,49.5L30.44,49.5C29.045,49.5 27.903,50.737 27.903,52.25C27.903,53.763 29.045,55 30.44,55L45.66,55C48.45,55 50.733,52.525 50.733,49.5L50.733,33C50.733,31.487 49.592,30.25 48.197,30.25C46.802,30.25 45.66,31.487 45.66,33L45.66,46.75ZM2.537,30.25C1.142,30.25 0,31.487 0,33L0,49.5C0,52.525 2.283,55 5.073,55L20.293,55C21.689,55 22.83,53.763 22.83,52.25C22.83,50.737 21.689,49.5 20.293,49.5L7.61,49.5C6.215,49.5 5.073,48.263 5.073,46.75L5.073,33C5.073,31.487 3.932,30.25 2.537,30.25Z" fill="#FFFFFF"/>
</svg>
