<svg width="52" height="56" viewBox="0 0 52 56" fill="none" xmlns="http://www.w3.org/2000/svg" xmlns:xlink="http://www.w3.org/1999/xlink">
<path d="M42.723,14.474L42.723,23.129C42.723,23.129 37.409,23.158 37.383,23.129L37.383,14.474L29.372,14.474C29.372,14.474 29.399,8.713 29.372,8.684L37.383,8.684L37.383,0L42.723,0L42.723,8.684L50.733,8.684L50.733,14.474L42.723,14.474ZM34.712,26.053L34.712,17.368L26.702,17.368L26.702,8.684L5.34,8.684C2.403,8.684 0,11.289 0,14.474L0,49.211C0,52.395 2.403,55 5.34,55L37.383,55C40.32,55 42.723,52.395 42.723,49.211L42.723,26.053L34.712,26.053ZM5.34,49.211L13.351,37.632L18.691,46.316L26.702,34.737L37.383,49.211L5.34,49.211Z" fill="#FFFFFF"/>
</svg>
